# This file uses centimeters as units for non-parametric coordinates.

mtllib shelf.mtl
g default
v -7.867131 0.463458 41.877000
v -7.147245 0.463458 41.877000
v -7.867131 11.463459 41.877000
v -7.147245 11.463459 41.877000
v -7.867131 11.463459 38.056255
v -7.147245 11.463459 38.056255
v -7.867131 0.463458 38.056255
v -7.147245 0.463458 38.056255
v -7.867131 11.026264 41.877000
v -7.867131 11.026266 38.056255
v -7.147245 11.026266 38.056255
v -7.147245 11.026264 41.877000
v -7.867131 9.653521 41.877000
v -7.867131 9.653523 38.056255
v -7.147245 9.653523 38.056255
v -7.147245 9.653521 41.877000
v -7.867131 9.120820 41.877000
v -7.867131 9.120822 38.056255
v -7.147245 9.120822 38.056255
v -7.147245 9.120820 41.877000
v -7.867131 7.641987 41.877000
v -7.867131 7.641988 38.056255
v -7.147245 7.641988 38.056255
v -7.147245 7.641987 41.877000
v -7.867131 7.128844 41.877000
v -7.867131 7.128844 38.056255
v -7.147245 7.128844 38.056255
v -7.147245 7.128844 41.877000
v -7.867131 5.253237 41.877000
v -7.867131 5.253238 38.056255
v -7.147245 5.253238 38.056255
v -7.147245 5.253237 41.877000
v -7.867131 4.773699 41.877000
v -7.867131 4.773699 38.056255
v -7.147245 4.773699 38.056255
v -7.147245 4.773699 41.877000
v -7.147245 11.026266 38.056255
v -7.147245 11.026264 41.877000
v -7.147245 11.463459 38.056255
v -7.147245 11.463459 41.877000
v 7.090163 0.463458 41.877000
v 7.810048 0.463458 41.877000
v 7.090163 11.463459 41.877000
v 7.810048 11.463459 41.877000
v 7.090163 11.463459 38.056256
v 7.810048 11.463459 38.056256
v 7.090163 0.463458 38.056256
v 7.810048 0.463458 38.056256
v 7.090163 11.026264 41.877000
v 7.090163 11.026266 38.056256
v 7.810048 11.026266 38.056256
v 7.810048 11.026264 41.877000
v 7.090163 9.653521 41.877000
v 7.090163 9.653523 38.056256
v 7.810048 9.653523 38.056256
v 7.810048 9.653521 41.877000
v 7.090163 9.120820 41.877000
v 7.090163 9.120822 38.056256
v 7.810048 9.120822 38.056256
v 7.810048 9.120820 41.877000
v 7.090163 7.641987 41.877000
v 7.090163 7.641988 38.056256
v 7.810048 7.641988 38.056256
v 7.810048 7.641987 41.877000
v 7.090163 7.128844 41.877000
v 7.090163 7.128844 38.056256
v 7.810048 7.128844 38.056256
v 7.810048 7.128844 41.877000
v 7.090163 5.253237 41.877000
v 7.090163 5.253238 38.056256
v 7.810048 5.253238 38.056256
v 7.810048 5.253237 41.877000
v 7.090163 4.773699 41.877000
v 7.090163 4.773699 38.056256
v 7.810048 4.773699 38.056256
v 7.810048 4.773699 41.877000
vt 0.888202 0.734510
vt 0.888202 0.677950
vt 0.885954 0.677950
vt 0.885954 0.734510
vt 0.885954 0.734510
vt 0.885954 0.677950
vt 0.888202 0.677950
vt 0.888202 0.734510
vt 0.246451 0.679169
vt 0.362373 0.679169
vt 0.362373 0.809942
vt 0.246451 0.809942
vt 0.791205 0.340581
vt 0.907126 0.340581
vt 0.907126 0.471354
vt 0.791205 0.471354
vt 0.907126 0.485903
vt 0.791205 0.485903
vt 0.907126 0.542809
vt 0.791205 0.542809
vt 0.907126 0.558378
vt 0.791205 0.558378
vt 0.907126 0.603246
vt 0.791205 0.603246
vt 0.907126 0.619408
vt 0.791205 0.619408
vt 0.907126 0.661058
vt 0.791205 0.661058
vt 0.907126 0.674322
vt 0.791205 0.674322
vt 0.536973 0.795091
vt 0.536973 0.679169
vt 0.578623 0.679169
vt 0.578623 0.795091
vt 0.584803 0.795091
vt 0.584803 0.679169
vt 0.629671 0.679169
vt 0.629671 0.795091
vt 0.636176 0.809994
vt 0.636176 0.694072
vt 0.693082 0.694072
vt 0.693082 0.809994
vt 0.669706 0.356702
vt 0.785628 0.356702
vt 0.785628 0.487475
vt 0.669706 0.487475
vt 0.785628 0.502025
vt 0.669706 0.502025
vt 0.785628 0.558931
vt 0.669706 0.558931
vt 0.785628 0.574500
vt 0.669706 0.574500
vt 0.785628 0.619368
vt 0.669706 0.619368
vt 0.785628 0.635530
vt 0.669706 0.635530
vt 0.785628 0.677179
vt 0.669706 0.677179
vt 0.785628 0.690444
vt 0.669706 0.690444
vt 0.368683 0.679169
vt 0.484605 0.679169
vt 0.484605 0.809942
vt 0.368683 0.809942
vt 0.722978 0.809994
vt 0.722978 0.694072
vt 0.764627 0.694072
vt 0.764627 0.809994
vt 0.770808 0.809994
vt 0.770808 0.694072
vt 0.815676 0.694072
vt 0.815676 0.809994
vt 0.822181 0.793872
vt 0.822181 0.677950
vt 0.879087 0.677950
vt 0.879087 0.793872
vt 0.490915 0.679169
vt 0.507036 0.679169
vt 0.507036 0.795091
vt 0.490915 0.795091
vt 0.513944 0.679169
vt 0.530066 0.679169
vt 0.530066 0.795091
vt 0.513944 0.795091
vt 0.682234 0.018114
vt 0.682234 0.001992
vt 0.798156 0.001992
vt 0.798156 0.018114
vt 0.798156 0.336953
vt 0.682234 0.336953
vt 0.699949 0.694072
vt 0.716070 0.694072
vt 0.716070 0.809994
vt 0.699949 0.809994
vt 0.664129 0.675541
vt 0.548207 0.675541
vt 0.548207 0.356702
vt 0.664129 0.356702
vt 0.542631 0.675541
vt 0.426709 0.675541
vt 0.426709 0.356702
vt 0.542631 0.356702
vt 0.421132 0.675541
vt 0.305210 0.675541
vt 0.305210 0.356702
vt 0.421132 0.356702
vt 0.299634 0.675541
vt 0.183712 0.675541
vt 0.183712 0.356702
vt 0.299634 0.356702
vt 0.178135 0.675541
vt 0.062213 0.675541
vt 0.062213 0.356702
vt 0.178135 0.356702
vt 0.117733 0.998008
vt 0.001811 0.998008
vt 0.001811 0.679169
vt 0.117733 0.679169
vt 0.240141 0.998008
vt 0.124220 0.998008
vt 0.124220 0.679169
vt 0.240141 0.679169
vt 0.001811 0.353074
vt 0.001811 0.336953
vt 0.132584 0.336953
vt 0.132584 0.353074
vt 0.147133 0.336953
vt 0.147133 0.353074
vt 0.132584 0.018113
vt 0.147133 0.018113
vt 0.204039 0.336953
vt 0.204039 0.353074
vt 0.132584 0.001992
vt 0.147133 0.001992
vt 0.219608 0.336953
vt 0.219608 0.353074
vt 0.001811 0.018113
vt 0.001811 0.001992
vt 0.204039 0.001992
vt 0.204039 0.018113
vt 0.219608 0.018113
vt 0.264476 0.336953
vt 0.264476 0.353074
vt 0.219608 0.001992
vt 0.280638 0.336953
vt 0.280638 0.353074
vt 0.264476 0.001992
vt 0.264476 0.018113
vt 0.280638 0.018113
vt 0.322288 0.336953
vt 0.322288 0.353074
vt 0.280638 0.001992
vt 0.335552 0.336953
vt 0.335552 0.353074
vt 0.322288 0.001992
vt 0.322288 0.018113
vt 0.335552 0.001992
vt 0.335552 0.018113
vt 0.335552 0.336953
vt 0.322288 0.336953
vt 0.545079 0.353074
vt 0.545079 0.336953
vt 0.675853 0.336953
vt 0.675853 0.353074
vt 0.530530 0.353074
vt 0.530530 0.336953
vt 0.473624 0.353074
vt 0.473624 0.336953
vt 0.530530 0.018114
vt 0.545079 0.018114
vt 0.458055 0.353074
vt 0.458055 0.336953
vt 0.530530 0.001992
vt 0.545079 0.001992
vt 0.413187 0.353074
vt 0.413187 0.336953
vt 0.458055 0.018114
vt 0.473624 0.018114
vt 0.473624 0.001992
vt 0.675853 0.001992
vt 0.675853 0.018114
vt 0.397025 0.353074
vt 0.397025 0.336953
vt 0.458055 0.001992
vt 0.355376 0.353074
vt 0.355376 0.336953
vt 0.397025 0.018114
vt 0.413187 0.018114
vt 0.413187 0.001992
vt 0.342111 0.353074
vt 0.342111 0.336953
vt 0.397025 0.001992
vt 0.355376 0.018114
vt 0.355376 0.001992
vt 0.342111 0.018114
vt 0.342111 0.001992
vt 0.355376 0.336953
vt 0.342111 0.336953
vn 0.000000 0.000000 1.000000
vn 0.000000 0.000000 1.000000
vn 0.000000 0.000000 1.000000
vn 0.000000 0.000000 1.000000
vn 0.000000 1.000000 0.000000
vn 0.000000 1.000000 0.000000
vn 0.000000 1.000000 0.000000
vn 0.000000 1.000000 0.000000
vn 0.000000 0.000000 -1.000000
vn 0.000000 0.000000 -1.000000
vn 0.000000 0.000000 -1.000000
vn 0.000000 0.000000 -1.000000
vn 0.000000 -1.000000 0.000000
vn 0.000000 -1.000000 0.000000
vn 0.000000 -1.000000 0.000000
vn 0.000000 -1.000000 0.000000
vn 1.000000 0.000000 0.000000
vn 1.000000 0.000000 0.000000
vn 1.000000 0.000000 0.000000
vn 1.000000 0.000000 0.000000
vn -1.000000 0.000000 0.000000
vn -1.000000 0.000000 0.000000
vn -1.000000 0.000000 0.000000
vn -1.000000 0.000000 0.000000
vn -1.000000 0.000000 0.000000
vn -1.000000 0.000000 0.000000
vn -1.000000 0.000000 0.000000
vn -1.000000 0.000000 0.000000
vn 0.000000 0.000000 -1.000000
vn 0.000000 0.000000 -1.000000
vn 0.000000 0.000000 -1.000000
vn 0.000000 0.000000 -1.000000
vn 0.000000 0.000000 1.000000
vn 0.000000 0.000000 1.000000
vn 0.000000 0.000000 1.000000
vn 0.000000 0.000000 1.000000
vn -1.000000 0.000000 0.000000
vn -1.000000 0.000000 0.000000
vn 0.000000 0.000000 -1.000000
vn 0.000000 0.000000 -1.000000
vn 1.000000 0.000000 0.000000
vn 1.000000 0.000000 0.000000
vn 1.000000 0.000000 0.000000
vn 1.000000 0.000000 0.000000
vn 0.000000 0.000000 1.000000
vn 0.000000 0.000000 1.000000
vn -1.000000 0.000000 0.000000
vn -1.000000 0.000000 0.000000
vn 0.000000 0.000000 -1.000000
vn 0.000000 0.000000 -1.000000
vn 0.000000 0.000000 1.000000
vn 0.000000 0.000000 1.000000
vn -1.000000 0.000000 0.000000
vn -1.000000 0.000000 0.000000
vn 0.000000 0.000000 -1.000000
vn 0.000000 0.000000 -1.000000
vn 1.000000 0.000000 0.000000
vn 1.000000 0.000000 0.000000
vn 1.000000 0.000000 0.000000
vn 1.000000 0.000000 0.000000
vn 0.000000 0.000000 1.000000
vn 0.000000 0.000000 1.000000
vn -1.000000 0.000000 0.000000
vn -1.000000 0.000000 0.000000
vn 0.000000 0.000000 -1.000000
vn 0.000000 0.000000 -1.000000
vn 0.000000 0.000000 1.000000
vn 0.000000 0.000000 1.000000
vn -1.000000 0.000000 0.000000
vn -1.000000 0.000000 0.000000
vn 0.000000 0.000000 -1.000000
vn 0.000000 0.000000 -1.000000
vn 1.000000 0.000000 0.000000
vn 1.000000 0.000000 0.000000
vn 1.000000 0.000000 0.000000
vn 1.000000 0.000000 0.000000
vn 0.000000 0.000000 1.000000
vn 0.000000 0.000000 1.000000
vn 0.000000 0.000000 0.000000
vn 0.000000 0.000000 0.000000
vn 0.000000 0.000000 0.000000
vn 0.000000 0.000000 0.000000
vn 0.000000 0.000000 0.000000
vn 0.000000 0.000000 0.000000
vn 0.000000 0.000000 0.000000
vn 0.000000 0.000000 0.000000
vn 0.000000 0.000000 0.000000
vn 0.000000 0.000000 0.000000
vn 0.000000 0.000000 0.000000
vn 0.000000 0.000000 0.000000
vn 0.000000 0.000000 0.000000
vn 0.000000 0.000000 0.000000
vn 0.000000 0.000000 0.000000
vn 0.000000 0.000000 0.000000
vn 0.000000 0.000000 1.000000
vn 0.000000 0.000000 1.000000
vn 0.000000 0.000000 1.000000
vn 0.000000 0.000000 1.000000
vn 0.000000 1.000000 0.000000
vn 0.000000 1.000000 0.000000
vn 0.000000 1.000000 0.000000
vn 0.000000 1.000000 0.000000
vn 0.000000 0.000000 -1.000000
vn 0.000000 0.000000 -1.000000
vn 0.000000 0.000000 -1.000000
vn 0.000000 0.000000 -1.000000
vn 0.000000 -1.000000 0.000000
vn 0.000000 -1.000000 0.000000
vn 0.000000 -1.000000 0.000000
vn 0.000000 -1.000000 0.000000
vn 1.000000 0.000000 0.000000
vn 1.000000 0.000000 0.000000
vn 1.000000 0.000000 0.000000
vn 1.000000 0.000000 0.000000
vn -1.000000 0.000000 0.000000
vn -1.000000 0.000000 0.000000
vn -1.000000 0.000000 0.000000
vn -1.000000 0.000000 0.000000
vn 0.000000 0.000000 -1.000000
vn 0.000000 0.000000 -1.000000
vn 0.000000 0.000000 -1.000000
vn 0.000000 0.000000 -1.000000
vn 1.000000 0.000000 0.000000
vn 1.000000 0.000000 0.000000
vn 1.000000 0.000000 0.000000
vn 1.000000 0.000000 0.000000
vn 0.000000 0.000000 1.000000
vn 0.000000 0.000000 1.000000
vn 0.000000 0.000000 1.000000
vn 0.000000 0.000000 1.000000
vn -1.000000 0.000000 0.000000
vn -1.000000 0.000000 0.000000
vn -1.000000 0.000000 0.000000
vn -1.000000 0.000000 0.000000
vn 0.000000 0.000000 -1.000000
vn 0.000000 0.000000 -1.000000
vn 1.000000 0.000000 0.000000
vn 1.000000 0.000000 0.000000
vn 0.000000 0.000000 1.000000
vn 0.000000 0.000000 1.000000
vn 0.000000 0.000000 -1.000000
vn 0.000000 0.000000 -1.000000
vn 1.000000 0.000000 0.000000
vn 1.000000 0.000000 0.000000
vn 0.000000 0.000000 1.000000
vn 0.000000 0.000000 1.000000
vn -1.000000 0.000000 0.000000
vn -1.000000 0.000000 0.000000
vn -1.000000 0.000000 0.000000
vn -1.000000 0.000000 0.000000
vn 0.000000 0.000000 -1.000000
vn 0.000000 0.000000 -1.000000
vn 1.000000 0.000000 0.000000
vn 1.000000 0.000000 0.000000
vn 0.000000 0.000000 1.000000
vn 0.000000 0.000000 1.000000
vn 0.000000 0.000000 -1.000000
vn 0.000000 0.000000 -1.000000
vn 1.000000 0.000000 0.000000
vn 1.000000 0.000000 0.000000
vn 0.000000 0.000000 1.000000
vn 0.000000 0.000000 1.000000
vn -1.000000 0.000000 0.000000
vn -1.000000 0.000000 0.000000
vn -1.000000 0.000000 0.000000
vn -1.000000 0.000000 0.000000
vn 0.000000 0.000000 -1.000000
vn 0.000000 0.000000 -1.000000
vn 1.000000 0.000000 0.000000
vn 1.000000 0.000000 0.000000
vn 0.000000 0.000000 1.000000
vn 0.000000 0.000000 1.000000
vn 0.000000 -1.000000 -0.000001
vn 0.000000 -1.000000 -0.000001
vn 0.000000 -1.000000 -0.000001
vn 0.000000 -1.000000 -0.000001
vn 0.000000 0.000000 -1.000000
vn 0.000000 0.000000 -1.000000
vn 0.000000 0.000000 -1.000000
vn 0.000000 0.000000 -1.000000
vn 0.000000 1.000000 0.000000
vn 0.000000 1.000000 0.000000
vn 0.000000 1.000000 0.000000
vn 0.000000 1.000000 0.000000
vn -0.000000 0.000000 1.000000
vn -0.000000 0.000000 1.000000
vn -0.000000 0.000000 1.000000
vn -0.000000 0.000000 1.000000
vn 0.000000 0.000000 -1.000000
vn 0.000000 0.000000 -1.000000
vn 0.000000 0.000000 -1.000000
vn 0.000000 0.000000 -1.000000
vn -0.000000 1.000000 0.000000
vn -0.000000 1.000000 0.000000
vn -0.000000 1.000000 0.000000
vn -0.000000 1.000000 0.000000
vn -0.000000 0.000000 1.000000
vn -0.000000 0.000000 1.000000
vn -0.000000 0.000000 1.000000
vn -0.000000 0.000000 1.000000
vn 0.000000 -1.000000 -0.000001
vn 0.000000 -1.000000 -0.000001
vn 0.000000 -1.000000 -0.000001
vn 0.000000 -1.000000 -0.000001
vn 0.000000 0.000000 -1.000000
vn 0.000000 0.000000 -1.000000
vn 0.000000 0.000000 -1.000000
vn 0.000000 0.000000 -1.000000
vn -0.000000 1.000000 0.000001
vn -0.000000 1.000000 0.000001
vn -0.000000 1.000000 0.000001
vn -0.000000 1.000000 0.000001
vn -0.000000 0.000000 1.000000
vn -0.000000 0.000000 1.000000
vn -0.000000 0.000000 1.000000
vn -0.000000 0.000000 1.000000
vn 0.000000 -1.000000 0.000000
vn 0.000000 -1.000000 0.000000
vn 0.000000 -1.000000 0.000000
vn 0.000000 -1.000000 0.000000
vn 0.000000 0.000000 -1.000000
vn 0.000000 0.000000 -1.000000
vn 0.000000 0.000000 -1.000000
vn 0.000000 0.000000 -1.000000
vn -0.000000 1.000000 0.000000
vn -0.000000 1.000000 0.000000
vn -0.000000 1.000000 0.000000
vn -0.000000 1.000000 0.000000
vn -0.000000 0.000000 1.000000
vn -0.000000 0.000000 1.000000
vn -0.000000 0.000000 1.000000
vn -0.000000 0.000000 1.000000
vn 0.000000 -1.000000 -0.000000
vn 0.000000 -1.000000 -0.000000
vn 0.000000 -1.000000 -0.000000
vn 0.000000 -1.000000 -0.000000
s 1
g shelf
usemtl initialShadingGroup
f 1/123/1 2/124/2 36/125/3 33/126/4
s off
f 3/77/5 4/78/6 6/79/7 5/80/8
s 2
f 34/161/9 35/162/10 8/163/11 7/164/12
s off
f 7/81/13 8/82/14 2/83/15 1/84/16
f 2/9/17 8/10/18 35/11/19 36/12/20
s 3
f 7/13/21 1/14/22 33/15/23 34/16/24
f 10/28/25 9/27/26 3/29/27 5/30/28
s 2
f 5/190/29 6/191/30 11/186/31 10/185/32
s 1
f 9/151/33 12/150/34 4/153/35 3/154/36
s 3
f 14/26/37 13/25/38 9/27/26 10/28/25
s 2
f 10/185/32 11/186/31 15/183/39 14/182/40
s off
f 16/31/41 15/32/42 11/33/43 12/34/44
s 1
f 13/146/45 16/145/46 12/150/34 9/151/33
s 3
f 18/24/47 17/23/48 13/25/38 14/26/37
s 2
f 14/182/40 15/183/39 19/176/49 18/175/50
s 1
f 17/143/51 20/142/52 16/145/46 13/146/45
s 3
f 22/22/53 21/21/54 17/23/48 18/24/47
s 2
f 18/175/50 19/176/49 23/172/55 22/171/56
s off
f 24/35/57 23/36/58 19/37/59 20/38/60
s 1
f 21/136/61 24/135/62 20/142/52 17/143/51
s 3
f 26/20/63 25/19/64 21/21/54 22/22/53
s 2
f 22/171/56 23/172/55 27/168/65 26/167/66
s 1
f 25/132/67 28/131/68 24/135/62 21/136/61
s 3
f 30/18/69 29/17/70 25/19/64 26/20/63
s 2
f 26/167/66 27/168/65 31/166/71 30/165/72
s off
f 32/39/73 31/40/74 27/41/75 28/42/76
s 1
f 29/128/77 32/127/78 28/131/68 25/132/67
s 3
f 34/16/24 33/15/23 29/17/70 30/18/69
s 2
f 30/165/72 31/166/71 35/162/10 34/161/9
s 1
f 33/126/4 36/125/3 32/127/78 29/128/77
s off
f 12/4/79 11/3/80 37/6/81 38/5/82
f 11/3/83 6/2/84 39/7/85 37/6/86
f 6/2/87 4/1/88 40/8/89 39/7/90
f 4/1/91 12/4/92 38/5/93 40/8/94
s 7
f 41/137/95 42/138/96 76/133/97 73/129/98
s off
f 43/85/99 44/86/100 46/87/101 45/88/102
s 8
f 74/170/103 75/174/104 48/180/105 47/181/106
s off
f 47/91/107 48/92/108 42/93/109 41/94/110
s 9
f 42/43/111 48/44/112 75/45/113 76/46/114
s off
f 47/61/115 41/62/116 73/63/117 74/64/118
s 8
f 45/195/119 46/196/120 51/194/121 50/193/122
s 9
f 52/58/123 51/57/124 46/59/125 44/60/126
s 7
f 49/156/127 52/155/128 44/157/129 43/158/130
s off
f 54/65/131 53/66/132 49/67/133 50/68/134
s 8
f 50/193/122 51/194/121 55/192/135 54/187/136
s 9
f 56/56/137 55/55/138 51/57/124 52/58/123
s 7
f 53/149/139 56/152/140 52/155/128 49/156/127
s 8
f 54/187/136 55/192/135 59/189/141 58/188/142
s 9
f 60/54/143 59/53/144 55/55/138 56/56/137
s 7
f 57/148/145 60/147/146 56/152/140 53/149/139
s off
f 62/69/147 61/70/148 57/71/149 58/72/150
s 8
f 58/188/142 59/189/141 63/184/151 62/177/152
s 9
f 64/52/153 63/51/154 59/53/144 60/54/143
s 7
f 61/141/155 64/144/156 60/147/146 57/148/145
s 8
f 62/177/152 63/184/151 67/179/157 66/178/158
s 9
f 68/50/159 67/49/160 63/51/154 64/52/153
s 7
f 65/140/161 68/139/162 64/144/156 61/141/155
s off
f 70/73/163 69/74/164 65/75/165 66/76/166
s 8
f 66/178/158 67/179/157 71/173/167 70/169/168
s 9
f 72/48/169 71/47/170 67/49/160 68/50/159
s 7
f 69/130/171 72/134/172 68/139/162 65/140/161
s 8
f 70/169/168 71/173/167 75/174/104 74/170/103
s 9
f 76/46/114 75/45/113 71/47/170 72/48/169
s 7
f 73/129/98 76/133/97 72/134/172 69/130/171
s off
usemtl standardSurface2SG
f 38/95/173 37/96/174 50/97/175 49/98/176
usemtl initialShadingGroup
f 37/197/177 39/198/178 45/195/179 50/193/180
f 39/89/181 40/90/182 43/85/183 45/88/184
f 40/159/185 38/160/186 49/156/187 43/158/188
f 19/176/189 15/183/190 54/187/191 58/188/192
f 15/99/193 16/100/194 53/101/195 54/102/196
f 16/145/197 20/142/198 57/148/199 53/149/200
usemtl standardSurface3SG
f 20/103/201 19/104/202 58/105/203 57/106/204
usemtl initialShadingGroup
f 27/168/205 23/172/206 62/177/207 66/178/208
f 23/107/209 24/108/210 61/109/211 62/110/212
f 24/135/213 28/131/214 65/140/215 61/141/216
usemtl standardSurface4SG
f 28/111/217 27/112/218 66/113/219 65/114/220
usemtl initialShadingGroup
f 35/162/221 31/166/222 70/169/223 74/170/224
f 31/115/225 32/116/226 69/117/227 70/118/228
f 32/127/229 36/125/230 73/129/231 69/130/232
usemtl standardSurface5SG
f 36/119/233 35/120/234 74/121/235 73/122/236
